<?xml version="1.0" encoding="UTF-8"?>
<svg width="490" height="490" version="1.1" viewBox="0 0 490 490" xmlns="http://www.w3.org/2000/svg">
<g stroke="#000">
<path d="m487.63 246.56a242.63 242.63 0 0 1-485.25 0 242.63 242.63 0 1 1 485.25 0z" fill="#fff" stroke-width="4.7441"/>
<path d="m475.73 246.2a231.88 231.88 0 0 1-463.75 0 231.88 231.88 0 1 1 463.75 0z" fill="#fff" stroke-width="1.5813"/>
<path d="m156.73 393.22a170.12 170.12 0 0 0 174.75-291.93 170.12 170.12 0 1 0-174.75 291.93z" fill="none" stroke-width="5.3766"/>
</g>
<g stroke-linecap="square">
<path d="m245.01 363.94s1.7693-12.16 48.111-17.61c27.792-3.268 38.335-32.981 37.497-47.108 0.0871-22.83 0.23376-52.093 0.46144-77.36-0.34141-27.782-0.3157-42.443 17.318-58.102-31.943-7.2964-36.668-23.441-46.299-37.709-26.453 12.814-45.189 1.4365-57.194-14.848m0.0417 252.74s-1.7693-12.16-48.111-17.61c-27.792-3.268-38.335-32.981-37.497-47.108-0.0871-22.83-0.23377-52.093-0.46144-77.36 0.34142-27.782 0.31571-42.443-17.318-58.102 31.943-7.2954 36.564-23.129 46.194-37.396 26.871 12.397 45.084 1.5403 57.507-15.265" fill="#fff" stroke-width=".31627"/>
<g fill="#fcd116" stroke="#000" stroke-width=".63254">
<path d="m254.32 157.53-9.7231-5.1299-9.6946 5.1834 1.8872-10.808-7.9384-7.5936 10.89-1.5498 4.7883-9.8765 4.8427 9.8499 10.898 1.4898-7.8963 7.6373 1.947 10.797z"/>
<path d="m192.03 202.21-9.7231-5.1299-9.6946 5.1834 1.8872-10.808-7.9384-7.5936 10.889-1.5498 4.7883-9.8765 4.8427 9.8499 10.898 1.4898-7.8963 7.6373 1.947 10.797z"/>
<path d="m317.65 202.21-9.7231-5.1299-9.6946 5.1834 1.8872-10.808-7.9384-7.5936 10.889-1.5498 4.7883-9.8765 4.8427 9.8499 10.898 1.4898-7.8963 7.6373 1.947 10.797z"/>
</g>
<path d="m159.32 220.1 85.991-0.054v143.32c-0.11293-0.75282-4.165-5.8444-11.5-8.8492-7.0623-2.8929-16.685-5.4212-27.923-7.0146-38.12-2.4668-43.509-31.665-43.509-31.665-5.0796-10.457-2.359-31.858-3.3-48.076l0.24278-47.659z" fill="#0038a8" stroke="#0038a8" stroke-width=".31627px"/>
<path d="m330.5 220.1-85.213 0.72379-0.13634 141.9c0.11293-0.75282 5.3393-5.6192 11.887-8.3518 7.117-2.9699 15.833-5.2773 26.895-6.871 38.12-2.4668 43.509-31.665 43.509-31.665 5.0796-10.457 2.359-31.858 3.3-48.076l-0.24277-47.659z" fill="#ce1126" stroke="#ce1126" stroke-width=".31627px"/>
<path d="m288.13 221.76c4e-3 29.551-19.235 53.51-42.968 53.51-23.734 0-42.972-23.959-42.968-53.51-4e-3 -29.551 19.235-53.51 42.968-53.51 23.734 0 42.972 23.959 42.968 53.51z" fill="#fff" stroke="#000" stroke-width="1.2651"/>
<g fill="#fcd116" stroke="#000" stroke-width=".63254">
<path d="m235.39 205.69-5.8896-10.113-3.3869-0.38358 8.0642 11.452 1.2122-0.95548zm-4.5714 4.6337-12.383-9.528-0.4436-5.5471 5.0075-0.16924 10.237 12.52-2.4181 2.7241zm-1.8805 2.1788-10.191-5.7526-0.42917-3.3816 11.56 7.909-0.93903 1.225z"/>
<path d="m249.96 203.53 3.074-16.352-2.103-3.8844-2.5022 19.956 1.5313 0.27999zm-6.5092-9e-3 -1.899-22.457 3.6412-6.0936 3.6339 4.9952-1.7388 23.283-3.6377 0.27253zm-2.8719 0.27326-3.0515-16.361 2.1083-3.8784 2.4748 19.963-1.5317 0.2756z"/>
<path d="m263.6 226.87 11.291 3.0798 2.6836-2.1016-13.78-2.5095-0.19417 1.5312zm0.01-6.5092 15.51-1.8908 4.2061 3.6434-3.4515 3.632-16.078-1.7472-0.18631-3.6377zm-0.18721-2.872 11.3-3.0456 2.6772 2.1097-13.787 2.4676-0.18952-1.5318z"/>
<path d="m255 238.38 5.9342 10.087 3.3885 0.36858-8.1149-11.416-1.2079 0.96079zm4.5511-4.6536 12.425 9.4732 0.46808 5.5452-5.0069 0.19134-10.292-12.475 2.406-2.7347zm1.8708-2.187 10.217 5.7074 0.44411 3.3794-11.594-7.858 0.93363-1.229z"/>
<path d="m228.7 231.66-10.173 5.7865-0.41795 3.3828 11.533-7.9476-0.94309-1.2218zm4.5869 4.6182-9.6532 12.286-5.5512 0.38718-0.11832-5.0091 12.624-10.109 2.6993 2.4456zm2.1596 1.9025-5.8561 10.133-3.3857 0.3948 8.0263-11.479 1.2153 0.95143z"/>
<path d="m226.69 217.37-11.312-2.9997-2.6686 2.1206 13.797 2.4117 0.1833-1.5326zm0.0363 6.5088-15.496 2.0008-4.2317-3.6137 3.4255-3.6567 16.09 1.6331 0.21213 3.6365zm0.20758 2.8705-11.278 3.1257-2.6921-2.0907 13.769-2.5654 0.20038 1.5304z"/>
<path d="m240.61 239.98-3.074 16.352 2.103 3.8844 2.5022-19.956-1.5313-0.27999zm6.5092 9e-3 1.899 22.457-3.6412 6.0933-3.6339-4.9952 1.7388-23.283 3.6377-0.27253zm2.8719-0.27329 3.0515 16.361-2.1083 3.8781-2.4748-19.963 1.5317-0.27563z"/>
<path d="m261.77 212.72 10.264-5.622 0.47228-3.3756-11.66 7.761m-3.5887-3.4546 9.8496-12.129 5.5569-0.29793 0.0378 5.0104-12.784 9.9053m-4.7883-4.4256 6.018-10.037 3.3914-0.34034-8.2097 11.348"/>
<path d="m264.47 221.6c0 10.8-8.755 19.556-19.555 19.556s-19.556-8.755-19.556-19.556c0-10.8 8.755-19.556 19.556-19.556 10.8 0 19.555 8.755 19.555 19.556z"/>
</g>
</g>
<g fill="none">
<g stroke="#ce1126" stroke-linecap="square" stroke-width=".31627px">
<path d="m279.17 325.13c-0.011-0.2465 0.59174-1.2986 0.70025-1.3422"/>
<path d="m277.54 324.72c0.12119-0.24239 0.76234-0.99948 0.81696-1.1088"/>
<path d="m265.69 285.86c-0.011-0.2465 1.467-0.36491 1.5756-0.40849"/>
<path d="m266.16 287.67c-0.011-0.2465 1.2336-0.65667 1.3422-0.70026"/>
<path d="m266.91 299.05c-0.16467-0.40018 1.2142-1.7394 1.6549-1.4508"/>
<path d="m266.03 298.49c-0.16467-0.40017 1.0266-2.052 1.4672-1.7635"/>
<path d="m288.99 328.51c-0.011-0.2465 0.15394-1.6738 0.26246-1.7174"/>
<path d="m290.74 328.82c-0.011-0.2465 0.34157-1.7989 0.45008-1.8425"/>
<path d="m294.41 278.95c-0.011-0.56384 3.0848-0.0478 3.1934 0.17092"/>
<path d="m296.69 280.58c-0.011-0.56385 1.7781-0.0478 1.8866 0.17091"/>
</g>
<path d="m245.26 111.1c-4e-3 6e-3 -6e-3 0.0139-0.01 0.0196-12.422 16.796-30.631 27.633-57.492 15.24-9.6317 14.268-14.252 30.104-46.194 37.399 17.634 15.66 17.657 30.322 17.316 58.105 0.22767 25.267 0.37743 54.528 0.46453 77.356-0.83887 14.127 9.706 43.835 37.497 47.105 46.343 5.4493 48.143 17.612 48.143 17.612s1.7994-12.163 48.143-17.612c27.792-3.268 38.335-32.977 37.497-47.105 0.0871-22.83 0.23686-52.09 0.46454-77.356-0.34141-27.782-0.3181-42.443 17.316-58.105-31.943-7.2954-36.672-23.438-46.305-37.706-26.444 12.809-44.825 1.3415-56.831-14.934-0.18938 0.29694 0.37184 0.40732-8e-3 -0.0193z" stroke="#000" stroke-linecap="square" stroke-width="1.4232"/>
<path d="m420.61 299.8c-31.469 95.703-135 150.48-231.28 122.33-96.276-28.116-148.83-128.54-117.37-224.25 31.45-95.716 134.99-150.49 231.27-122.35 96.285 28.145 148.82 128.55 117.38 224.26z" stroke-width=".31627"/>
</g>
<g fill="#fcd116" stroke="#000" stroke-width=".63254">
<path d="m163.62 382.44 3.7911 2.042 3.1169-2.9671-0.75626 4.2386 3.7848 2.0386-4.2665 0.58409-0.75918 4.2288-1.8822-3.8879-4.276 0.57096 3.1072-2.9641-1.8598-3.8841z"/>
<path d="m174.38 388.19 3.9379 1.742 2.8776-3.1997-0.42544 4.2845 3.9312 1.7391-4.2086 0.91308-0.42912 4.275-2.1779-3.7304-4.2187 0.90064 2.8681-3.1962-2.1553-3.7282z"/>
<path d="m185.55 393.1 4.0612 1.4315 2.6208-3.4132-0.0919 4.3044 4.0543 1.4291-4.1251 1.2366-0.0963 4.2956-2.4606-3.5504-4.1362 1.2251 2.6117-3.4088-2.4378-3.5498z"/>
<path d="m197.07 397.14 4.1599 1.1124 2.3483-3.6061 0.24201 4.2987 4.1529 1.1105-4.0166 1.5527 0.23693 4.2899-2.7284-3.349-4.0286 1.542 2.3396-3.601-2.7057-3.3502z"/>
<path d="m208.87 400.24 4.2336 0.78663 2.0618-3.7772 0.57441 4.2671 4.2266 0.78533-3.8844 1.8593 0.56866 4.2589-2.9797-3.1274-3.8971 1.8496 2.0535-3.7715-2.9572-3.1305z"/>
<path d="m220.88 402.46 4.2817 0.45628 1.763-3.9255 0.90326 4.2099 4.2747 0.45552-3.7285 2.1546 0.89688 4.202-3.213-2.8871-3.7421 2.146 1.7551-3.9192-3.1908-2.892z"/>
<path d="m233.02 403.69 4.3041 0.1231 1.4535-4.0505 1.2268 4.127 4.2972 0.12291-3.5504 2.4371 1.2198 4.1197-3.4271-2.6295-3.5647 2.4295 1.4461-4.0435-3.4053-2.636z"/>
<path d="m245.22 404.01 4.301-0.21092 1.1352-4.151 1.543 4.0195 4.2937-0.21055-3.3509 2.705 1.5355 4.0128-3.6207-2.3559-3.3654 2.6985 1.1283-4.1434-3.5995-2.3641z"/>
<path d="m257.4 403.37 4.2716-0.54376 0.80987-4.2263 1.85 3.8879 4.2643-0.54284-3.131 2.9566 1.842 3.8816-3.7924-2.0681-3.1462 2.9513 0.80365-4.2184-3.7718-2.0779z"/>
<path d="m269.5 401.79 4.2165-0.87322 0.47982-4.2766 2.1458 3.7326 4.2096-0.87177-2.8924 3.1905 2.1374 3.7272-3.9414-1.7679-2.9079 3.1864 0.47424-4.2681-3.9218-1.7793z"/>
<path d="m281.45 399.29 4.1362-1.1972 0.14717-4.3006 2.4285 3.5555 4.1292-1.1952-2.6366 3.405 2.4196 3.5504-4.0663-1.4573-2.6524 3.4018 0.14227-4.2918-4.0476-1.4702z"/>
<path d="m293.16 395.88 4.0312-1.5141-0.1866-4.2994 2.6967 3.3563 4.0242-1.5116-2.3648 3.5988 2.6875 3.3522-4.1672-1.1378-2.3808 3.5972-0.1908-4.2899-4.1495-1.1521z"/>
<path d="m304.57 391.55 3.9015-1.8221-0.51941-4.2719 2.9489 3.1372 3.8949-1.8191-2.0786 3.7715 2.9393 3.1338-4.2428-0.81123-2.0947 3.7712-0.52289-4.2624-4.2263-0.82689z"/>
<path d="m315.62 386.36 3.7484-2.1191-0.84903-4.2187 3.1833 2.8992 3.7421-2.1156-1.78 3.9214 3.1734 2.8965-4.293-0.47991-1.796 3.9221-0.85175-4.2089-4.2776-0.49676z"/>
<path d="m326.23 380.32 3.5729-2.4032-1.1734-4.1403 3.3983 2.6438 3.5669-2.3992-1.4708 4.0476 3.3882 2.6418-4.3171-0.1458-1.4867 4.0495-1.1753-4.1302-4.3032-0.16379z"/>
<path d="m336.32 373.46 3.3762-2.6728-1.4906-4.0369 3.5928 2.3726 3.3705-2.6684-1.1528 4.1492 3.5827 2.3714-4.3155 0.18916-1.1685 4.1526-1.4918-4.0268-4.3032 0.17012z"/>
<path d="m345.87 365.86 3.1588-2.9264-1.799-3.9094 3.7658 2.087 3.1535-2.9215-0.82777 4.226 3.7557 2.0866-4.288 0.52295-0.8432 4.2304-1.7994-3.899-4.2769 0.50303z"/>
<path d="m354.79 357.55 2.9224-3.1624-2.0966-3.7579 3.9164 1.7888 2.9176-3.1571-0.49771 4.2776 3.9062 1.7892-4.2345 0.85377-0.51274 4.2832-2.0962-3.7478-4.225 0.83303z"/>
<path d="m363.05 348.57 2.6685-3.3797-2.3817-3.5843 4.0432 1.4797 2.664-3.374-0.16452 4.3032 4.0331 1.4809-4.1555 1.1795-0.1791 4.3101-2.3805-3.5742-4.1479 1.1582z"/>
<path d="m370.61 338.95 2.3984-3.5764-2.6523-3.3888 4.146 1.1618 2.3944-3.5701 0.16956 4.3032 4.1359 1.1638-4.0514 1.4981 0.15557 4.3111-2.6504-3.3787-4.0454 1.4762z"/>
<path d="m377.37 328.8 2.1142-3.7513-2.9068-3.1731 4.2235 0.8373 2.1107-3.745 0.5023 4.2769 4.2137 0.84005-3.9233 1.8074 0.48898 4.2861-2.9041-3.1633-3.9189 1.7851z"/>
<path d="m383.32 318.14 1.8172-3.9037-3.144-2.9384 4.2757 0.50745 1.8142-3.8974 0.83224 4.2254 4.2662 0.51096-3.7715 2.106 0.81965 4.2352-3.1405-2.9288-3.769 2.0834z"/>
<path d="m388.44 307.08 1.509-4.0331-3.3623-2.6857 4.3019 0.17442 1.5065-4.0261 1.1574 4.1479 4.2927 0.17863-3.5969 2.3921 1.1456 4.159-3.3582-2.6765-3.596 2.3694z"/>
<path d="m392.68 295.63 1.1918-4.1378-3.5606-2.417 4.3025-0.15962 1.1898-4.1308 1.4755 4.0457 4.2937-0.1547-3.4005 2.6637 1.4646 4.0574-3.5555-2.4081-3.4015 2.641z"/>
<path d="m396.03 283.9 0.86759-4.2178-3.737-2.1338 4.2772-0.49256 0.86617-4.2108 1.7845 3.9192 4.2687-0.48699-3.1839 2.9192 1.7746 3.9319-3.7314-2.1253-3.1867 2.8967z"/>
<path d="m398.44 271.94 0.5382-4.2722-3.8911-1.8378 4.2263-0.82249 0.53731-4.2652 2.0828 3.7693 4.2184-0.81626-2.9481 3.1572 2.0739 3.7826-3.8851-1.8298-2.9526 3.1349z"/>
<path d="m399.96 259.82 0.20554-4.301-4.0217-1.5308 4.1498-1.1475 0.2052-4.294 2.3686 3.5966 4.1422-1.1407-2.6946 3.3762 2.3608 3.6105-4.015-1.5233-2.7008 3.3544z"/>
<path d="m400.49 247.63-0.12847-4.3041-4.1286-1.2145 4.0483-1.4657-0.12825-4.2968 2.6403 3.4021 4.0413-1.4583-2.4248 3.5748 2.6335 3.4167-4.121-1.2075-2.4326 3.5536z"/>
<path d="m400.08 235.44-0.46182-4.281-4.2102-0.89071 3.9227-1.7752-0.46106-4.2741 2.8961 3.187 3.916-1.7673-2.1404 3.7519 2.8905 3.2022-4.2023-0.88432-2.1498 3.7314z"/>
<path d="m398.75 223.31-0.79232-4.2326-4.2665-0.56163 3.7731-2.074-0.79099-4.2254 3.1345 2.953 3.7674-2.0656-1.8431 3.9066 3.1301 2.9684-4.2582-0.55587-1.8541 3.887z"/>
<path d="m396.48 211.32-1.1178-4.1583-4.2972-0.2295 3.601-2.36-1.1159-4.1514 3.3537 2.7014 3.596-2.3512-1.5349 4.0378 3.3506 2.7171-4.2883-0.22442-1.5474 4.0188z"/>
<path d="m393.25 199.54-1.4366-4.0593-4.3022 0.10419 3.4075-2.6319-1.4342-4.0524 3.553 2.4334 3.4031-2.6228-1.2174 4.1444 3.5511 2.4493-4.293 0.10857-1.2314 4.1267z"/>
<path d="m389.17 188.05-1.7471-3.9357-4.281 0.43746 3.1931-2.8882-1.7441-3.929 3.731 2.1505 3.1896-2.8787-0.89238 4.2263 3.7301 2.1666-4.2716 0.4411-0.90769 4.2096z"/>
<path d="m384.17 176.91-2.0469-3.7883-4.2342 0.76803 2.9597-3.1271-2.0435-3.782 3.8866 1.8548 2.9567-3.1174-0.56205 4.2829 3.887 1.8709-4.2244 0.77094-0.57861 4.2674z"/>
<path d="m378.35 166.19-2.3344-3.6184-4.1621 1.0938 2.7084-3.3471-2.3305-3.6124 4.0185 1.548 2.7062-3.337-0.22845 4.3136 4.0204 1.564-4.152 1.096-0.24619 4.2994z"/>
<path d="m371.68 155.95-2.6077-3.4265-4.0647 1.413 2.4409-3.547-2.6033-3.4208 4.1264 1.232 2.4396-3.5368 0.10646 4.3184 4.1295 1.2478-4.0546 1.4144 0.0877 4.3054z"/>
<path d="m364.28 146.26-2.8654-3.2142-3.9429 1.7237 2.1588-3.7253-2.8606-3.2089 4.2096 0.90858 2.1582-3.7152 0.44075 4.2972 4.2137 0.92411-3.9328 1.7243 0.42102 4.2858z"/>
<path d="m356.12 137.18-3.1058-2.9825-3.7974 2.0242 1.8635-3.8813-3.1007-2.9775 4.2671 0.57957 1.8638-3.8712 0.77246 4.25 4.2725 0.59471-3.7873 2.024 0.75194 4.2402z"/>
<path d="m347.3 128.75-3.3278-2.7327-3.6292 2.3125 1.5569-4.0141-3.3221-2.7281 4.2994 0.24696 1.558-4.004 1.0997 4.1773 4.3057 0.26164-3.6191 2.3116 1.0784 4.1691z"/>
<path d="m337.84 121.03-3.5296-2.4665-3.4391 2.587 1.2411-4.1229-3.5239-2.4624 4.3054-0.0871 1.2428-4.1128 1.4202 4.0796 4.3133-0.073-3.429 2.5852 1.3984 4.0729z"/>
<path d="m327.81 114.07-3.7102-2.1857-3.2282 2.8455 0.91798-4.2067-3.7038-2.182 4.2858-0.42032 0.92054-4.1966 1.7319 3.9572 4.2946-0.40681-3.2184 2.843 1.7097 3.9524z"/>
<path d="m317.28 107.91-3.8683-1.8917-2.9981 3.0871 0.58931-4.2652-3.8617-1.8885 4.2402-0.75114 0.5926-4.2554 2.0334 3.8111 4.25-0.73836-2.9885 3.0838 2.0108 3.8082z"/>
<path d="m306.31 102.58-4.0034-1.586-2.7497 3.3104 0.25682-4.2978-3.9967-1.5834 4.1694-1.0777 0.26086-4.2886 2.3227 3.6418 4.1801-1.0657-2.7404 3.3063 2.3 3.6406z"/>
<path d="m294.95 98.117-4.114-1.2709-2.4847 3.5134-0.0772-4.3048-4.1074-1.2687 4.0732-1.3977-0.0724-4.2959 2.5981 3.4508 4.085-1.3866-2.4758 3.5087 2.5754 3.4515z"/>
<path d="m283.28 94.55-4.2004-0.94821-2.205 3.6956-0.41058-4.2861-4.1934-0.94663 3.9527-1.7092-0.40514-4.2772 2.8578 3.2392 3.9651-1.699-2.1964 3.6902 2.8351 3.2415z"/>
<path d="m271.37 91.896-4.2611-0.61992-1.912 3.8553-0.7414-4.2412-4.2542-0.61888 3.8085-2.0103-0.73532-4.2333 3.1001 3.008 3.8215-2.0011-1.9039 3.8493 3.0778 3.0121z"/>
<path d="m259.29 90.176-4.2965-0.28789-1.6076 3.992-1.0678-4.171-4.2892-0.28741 3.6412-2.2993-1.0611-4.1634 3.324 2.7588 3.6551-2.2912-1.5999 3.985 3.3019 2.7645z"/>
<path d="m247.11 89.394-4.3057 0.04597-1.2934 4.1042-1.3879-4.0758-4.2984 0.04589 3.4521-2.5746-1.3806-4.0685 3.5277 2.4929 3.4663-2.5676-1.2862 4.0973 3.5062 2.5003z"/>
<path d="m234.91 89.559-4.2893 0.37968-0.97123 4.1925-1.6997-3.9559-4.282 0.37905 3.2421-2.8345-1.6919-3.9493 3.7105 2.2119 3.257-2.8286-0.96469 4.1846 3.6896 2.2209z"/>
<path d="m222.75 90.672-4.2469 0.7111-0.64326 4.2551-2.0013-3.8123-4.2399 0.7099 3.0125-3.0773-1.993-3.8063 3.8708 1.9175 3.0278-3.0726-0.63735 4.2469 3.8506 1.9282z"/>
<path d="m210.72 92.722-4.1792 1.0379-0.3117 4.2921-2.2906-3.6456-4.1719 1.0362 2.765-3.3015-2.2819-3.6406 4.0075 1.6119 2.7807-3.2981-0.30645 4.2832 3.9885 1.6241z"/>
<path d="m198.89 95.698-4.0862 1.3586 0.0217 4.3032-2.5662-3.4571-4.0793 1.3563 2.501-3.5059-2.5571-3.4527 4.1204 1.2966 2.5169-3.5033 0.0263 4.2943 4.1023 1.3102z"/>
<path d="m187.32 99.581-3.9686 1.6713 0.35533 4.2886-2.8265-3.2478-3.9619 1.6685 2.2216-3.689-2.8171-3.244 4.2086 0.97323 2.2377-3.688 0.35916 4.2791 4.1915 0.98822z"/>
<path d="m176.08 104.35-3.8269 1.974 0.68678 4.2481-3.0698-3.019-3.8205 1.9707 1.9289-3.8503-3.0601-3.0159 4.2712 0.64399 1.945-3.8506 0.68988 4.2387 4.2554 0.66027z"/>
<path d="m165.25 109.98-3.6624 2.2646 1.014 4.182-3.2946-2.772-3.6564 2.2608 1.6247-3.9882-3.2848-2.7696 4.3085 0.31101 1.6407-3.9898 1.0163 4.1722 4.294 0.32847z"/>
<path d="m154.89 116.43-3.4758 2.5416 1.335 4.091-3.4995-2.5084-3.4701 2.5373 1.3108-4.102-3.4894-2.5068 4.3196-0.0238 1.3266-4.1049 1.3365 4.0812 4.3063-5e-3z"/>
<path d="m145.06 123.66-3.2686 2.8033 1.6479 3.9752-3.6833-2.2297-3.263 2.7986 0.98903-4.1912-3.6732-2.2289 4.3048-0.35837 1.0046-4.1953 1.6487 3.9651 4.293-0.33885z"/>
<path d="m135.82 131.63-3.0415 3.0482 1.951 3.8357-3.8449-1.9376-3.0364 3.043 0.66122-4.2554-3.8348-1.9376 4.264-0.6909 0.67647-4.2605 1.951 3.8256 4.2538-0.67055z"/>
<path d="m127.23 140.29-2.796 3.2747 2.2425 3.6728-3.9837-1.6336-2.7913 3.2693 0.32933-4.2937-3.9736-1.6344 4.1975-1.0194 0.34413-4.3 2.2418 3.6627 4.189-0.99834z"/>
<path d="m119.33 149.6-2.5337 3.4818 2.5206 3.4878-4.0982-1.3198-2.5294 3.4758-5e-3 -4.3063-4.0884-1.3214 4.1058-1.3418 0.01-4.3139 2.519 3.4777 4.0992-1.3201z"/>
<path d="m112.18 159.49-2.2563 3.6675 2.7833 3.2822-4.1884-0.9983-2.2525 3.6614-0.33825-4.293-4.1782-1.0007 3.9898-1.6559-0.32459-4.3016 2.7809 3.2721 3.9844-1.6338z"/>
<path d="m105.81 169.9-1.9654 3.8313 3.0291 3.0567-4.2529-0.67091-1.9621 3.825-0.66977-4.2541-4.2434-0.67404 3.8493-1.96-0.6568-4.2636 3.026 3.047 3.8458-1.9375z"/>
<path d="m100.28 180.77-1.6625 3.972 3.2569 2.8126-4.2921-0.33917-1.6597 3.9654-0.99755-4.1893-4.2829-0.34303 3.6858-2.2525-0.98537-4.1998 3.2532 2.8032 3.6842-2.2298z"/>
<path d="m95.596 192.05-1.3495 4.0891 3.4654 2.5516-4.3057-5e-3 -1.3472 4.0824-1.3194-4.0992-4.2965-0.01 3.5002-2.5315-1.308-4.1106 3.4606 2.5426 3.5002-2.5088z"/>
<path d="m91.804 203.65-1.0285 4.1814 3.6526 2.2754-4.293 0.32842-1.0268 4.1744-1.6331-3.9847-4.2842 0.32313 3.2933-2.7952-1.6227-3.997 3.6472 2.2666 3.2952-2.7725z"/>
<path d="m88.923 215.5-0.70139 4.2484 3.818 1.9855-4.2548 0.66006-0.70022 4.2415-1.937-3.8462-4.2466 0.65414 3.0669-3.042-1.9275-3.8591 3.812 1.9772 3.0704-3.0195z"/>
<path d="m86.971 227.55-0.37013 4.2902 3.9603 1.6837-4.1909 0.98771-0.3695 4.2829-2.2291-3.6845-4.183 0.98119 2.822-3.2706-2.2208-3.6981 3.9537 1.676 2.8273-3.2484z"/>
<path d="m85.959 239.71-0.03654 4.3057 4.0789 1.3718-4.1017 1.3095-0.03648 4.2987-2.508-3.5008-4.0944 1.3024 2.56-3.4793-2.5007-3.515 4.0717 1.3645 2.567-3.4578z"/>
<path d="m85.89 251.92 0.29738 4.2956 4.1729 1.0514-3.9878 1.6236 0.29689 4.2886-2.7718-3.2958-3.9812 1.6159 2.2826-3.6672-2.7657-3.3107 4.1653 1.0447 2.2912-3.6463z"/>
<path d="m86.769 264.09 0.62957 4.2598 4.2418 0.72467-3.85 1.9279 0.62852 4.2526-3.019-3.0709-3.8439 1.9197 1.9914-3.8332-3.014-3.0862 4.2336 0.71863 2.0016-3.813z"/>
<path d="m88.587 276.16 0.95779 4.1982 4.2851 0.39376-3.689 2.2204 0.95621 4.1912-3.2481-2.8277-3.6836 2.2118 1.6883-3.9761-3.244-2.8433 4.2766 0.38835 1.7001-3.9565z"/>
<path d="m91.336 288.05 1.2801 4.1112 4.3029 0.0607-3.5059 2.4994 1.2779 4.1046-3.4571-2.5677-3.5011 2.4905 1.3753-4.0948-3.4546-2.5835 4.294 0.056z"/>
<path d="m94.998 299.69 1.5949 3.9999 4.2946-0.27304-3.3015 2.7637 1.5923 3.9932-3.646-2.2919-3.2974 2.7544 1.0537-4.189-3.6444-2.308 4.2855-0.27706 1.0684-4.1716z"/>
<path d="m99.552 311.01 1.9002 3.8642 4.2605-0.60525-3.0773 3.0114 1.8971 3.8576-3.8126-2.0023-3.074 3.0018 0.72574-4.2583-3.8123-2.0184 4.251-0.60851 0.74172-4.2421z"/>
<path d="m104.97 321.94 2.1941 3.7051 4.2007-0.93366-2.8346 3.2408 2.1904 3.6991-3.9562-1.7008-2.8321 3.231 0.39347-4.3016-3.9575-1.7168 4.1909-0.93619 0.41064-4.2867z"/>
<path d="m111.22 332.44 2.4746 3.5239 4.1159-1.2564-2.575 3.4508 2.4704 3.5182-4.0761-1.3891-2.5732 3.4407 0.059-4.3193-4.0786-1.405 4.1058-1.2582 0.0773-4.3057z"/>
<path d="m118.26 342.4 2.7402 3.3215 4.0062-1.5715-2.2998 3.64 2.7356 3.3161-4.1716-1.0691-2.2989 3.6298-0.27586-4.3108-4.1751-1.0848 3.9961-1.5724-0.25658-4.2987z"/>
<path d="m126.06 351.79 2.9893 3.0993 3.8724-1.8772-2.0109 3.8072 2.9843 3.0941-4.2418-0.74264-2.0107 3.7971-0.60907-4.2766-4.2466-0.75797 3.8623-1.8774-0.58892-4.2658z"/>
<path d="m134.55 360.55 3.2206 2.8582 3.7152-2.1717-1.7097 3.9515 3.2152 2.8535-4.2867-0.41156-1.7103 3.9414-0.93875-4.2165-4.2927-0.42649 3.7051-2.1712-0.91785-4.2073z"/>
<path d="m143.71 368.62 3.4325 2.5999 3.5356-2.4533-1.3981 4.0723 3.4268 2.5956-4.3057-0.0779-1.3995 4.0622-1.2629-4.1308-4.3127-0.0924 3.5255-2.4519-1.2413-4.1235z"/>
<path d="m153.45 375.95 3.6238 2.326 3.3348-2.72-1.0782 4.1684 3.6178 2.3222-4.2987 0.25605-1.0804 4.1583-1.5793-4.0204-4.307 0.24224 3.3249-2.7178-1.5572-4.015z"/>
</g>
<path d="m202.12 383.26a147.28 146.92 0 0 0 113.46-11.92" fill="none" stroke-width=".31627"/>
<path d="m276.51 386.01-4.0568 0.90162q-0.66644-4.0236 0.16105-8.3078 0.84106-4.2874 3.164-8.7616l-9.5517 2.1229-0.73577-3.3104 13.771-3.0607 0.64832 2.917q-2.4179 4.2393-3.2664 8.5567-0.83502 4.3146-0.1339 8.9425zm-25.744-6.2938q0.24165 3.6194 1.072 5.2077 0.84425 1.5873 2.439 1.4808 1.5948-0.10646 2.2196-1.8058 0.62482-1.6993 0.385-5.2912-0.24073-3.6055-1.085-5.1928-0.84423-1.5874-2.439-1.4808-1.5948 0.10646-2.2205 1.7919-0.61281 1.6707-0.37114 5.2902zm-4.1188 0.27499q-0.34163-5.1172 1.264-7.7736 1.6186-2.6711 5.2242-2.9118 3.5919-0.2398 5.5518 2.2063 1.9732 2.4313 2.3148 7.5484 0.34164 5.1171-1.2788 7.7606-1.6066 2.6424-5.226 2.8841-3.6055 0.24071-5.5638-2.1776-1.9445-2.4193-2.2862-7.5364zm-10.651-3.7223q0.14579-1.7033-0.62862-2.76-0.75939-1.0694-2.2273-1.195-1.3848-0.11854-2.2421 0.77059-0.84343 0.89033-0.9904 2.6075-0.13749 1.6064 0.58865 2.5752 0.72613 0.96887 2.1802 1.0933 1.4264 0.12211 2.3054-0.69542 0.87904-0.81752 1.0142-2.3962zm-0.37288 5.1713q-0.75165 0.63314-1.723 0.89874-0.97129 0.26557-2.1484 0.16484-2.9219-0.25011-4.5299-2.1593-1.6082-1.9092-1.3557-4.8589 0.26787-3.1296 2.3436-4.8908 2.0758-1.7613 5.2055-1.4934 3.6282 0.31055 5.2969 2.9782 1.6838 2.655 1.2737 7.4463-0.44095 5.1514-2.6974 7.7202-2.2565 2.5687-6.0509 2.2441-2.6173-0.22402-4.1074-1.7186-1.489-1.5084-1.4399-3.8756l4.0008 0.35641q0.0567 0.96737 0.62571 1.4904 0.56901 0.52298 1.6768 0.6178 1.4956 0.12799 2.3963-1.1062 0.90073-1.2342 1.2332-3.8142zm-26.747 3.6842 3.2016-13.225-4.6198-1.1184 0.65731-2.7152 0.29718 0.0719q2.5261 0.61151 3.8639 0.10599 1.3514-0.50224 1.9988-2.2903l3.0934 0.74887-4.683 19.344-3.8095-0.92218z" stroke-width=".31627px"/>
<path d="m80.339 337.18a186.61 187.2 0 0 1 49.117-240.74 186.61 187.2 0 0 1 244.47 15.456 186.61 187.2 0 0 1 18.601 245.02" fill="none" stroke-width=".31627"/>
<path d="m425.16 321.68-3.1083 6.1894q-2.6815-0.90596-4.7554 0.17815-2.0531 1.0945-3.6643 4.3032-1.3722 2.7325-1.0958 4.6081 0.27642 1.8756 2.1809 2.8319 2.7739 1.393 8.5978-5.6619l0.13495-0.1655q0.14536-0.18622 0.46716-0.56897 3.073-3.7965 5.147-5.036 1.8459-1.0949 4.0109-1.0704 2.1858 0.0349 4.5663 1.2304 4.4506 2.235 5.2928 6.4424 0.86282 4.2178-2.0064 9.9312-2.6821 5.3408-6.715 7.074-4.0432 1.754-8.7221-0.38819l3.0251-6.024q2.2982 0.94672 4.2266-3e-3 1.9285-0.94969 3.3528-3.7858 1.2371-2.4634 0.93986-4.2975-0.28692-1.803-2.0672-2.6971-2.422-1.2163-6.2318 3.3765-1.0381 1.2413-1.6194 1.9344-2.5224 2.9066-3.695 4.0546-1.183 1.1685-2.2824 1.9125-1.9706 1.3433-4.1564 1.412-2.1652 0.0791-4.5458-1.1164-4.7611-2.391-5.7789-6.92-0.99697-4.5186 1.9346-10.356 2.89-5.7548 7.2027-7.6844 4.313-1.9297 9.3644 0.29606zm0.22139-35.852 32.778 9.4805-6.8801 23.788-5.6966-1.6476 4.956-17.134-6.987-2.0209-4.5309 15.665-5.6075-1.6219 4.5309-15.665-8.4336-2.4393-5.1875 17.935-6.0528-1.7506 7.112-24.589zm3.4157-24.59 35.153-8.186-0.80259 7.7416-26.139 4.5793 24.629 9.9824-0.79304 7.6496-32.74-15.085 0.69272-6.6818zm0.44278-25.472 34.103-1.0659 0.21923 7.0155-34.103 1.0659zm-2.8148-24.324 27.673-4.4537-1.6085-9.9941 6.0148-0.96801 4.3212 26.849-6.0148 0.96804-1.5974-9.9255-27.673 4.4537-1.1152-6.9295zm18.597-36.311-15.271 0.25837 3.0832 8.9583 12.188-9.2167zm5.1346-6.0787 2.6384 7.6661-28.261 22.735-2.3972-6.9652 5.8829-4.4746-4.3044-12.507-7.3678 0.15954-2.4048-6.987 36.213 0.37314zm-45.459-17.145 24.551-13.523-4.8842-8.8666 5.3361-2.9394 13.121 23.82-5.3361 2.9394-4.8506-8.8059-24.551 13.523zm-26.756-36.656 26.372-21.652 4.6596 5.6755-9.3281 25.581 18.118-14.875 4.3949 5.3532-26.372 21.652-4.6008-5.6037 9.2692-25.653-18.118 14.875-4.3949-5.3532zm-25.839-22.332 21.706-26.327 19.106 15.753-3.7725 4.5755-13.762-11.347-4.627 5.6122 12.582 10.374-3.7133 4.504-12.582-10.374-5.585 6.7739 14.405 11.877-4.0081 4.8614-19.749-16.283zm-26.314-27.702 6.0626 3.349q-1.0105 2.6439-9e-3 4.7586 1.0131 2.0945 4.1558 3.8307 2.6765 1.4784 4.5616 1.2759 1.8849-0.20258 2.9154-2.068 1.5008-2.717-5.32-8.8135l-0.16009-0.14136q-0.18037-0.15256-0.55018-0.48914-3.6728-3.2196-4.8301-5.3409-1.0216-1.8874-0.91206-4.0498 0.12069-2.1827 1.4087-4.5144 2.408-4.3595 6.6452-5.0357 4.2484-0.69655 9.8448 2.3947 5.2314 2.8897 6.8049 6.9874 1.5939 4.109-0.73033 8.7l-5.9003-3.2592q1.0362-2.2592 0.16298-4.2235-0.87326-1.9643-3.651-3.4989-2.4129-1.3328-4.2573-1.1079-1.8129 0.2159-2.7761 1.9597-1.3104 2.3723 3.1294 6.3596 1.1996 1.086 1.8693 1.6941 2.8053 2.6346 3.9062 3.8512 1.1212 1.228 1.8214 2.3557 1.2649 2.0219 1.2477 4.2089-6e-3 2.1667-1.294 4.4986-2.576 4.6637-7.1414 5.5028-4.5543 0.81879-10.272-2.3397-5.6369-3.1137-7.3957-7.4991t0.6635-9.3455zm-35.833-1.6035 10.721-32.392 23.509 7.7806-1.8633 5.6296-16.933-5.6043-2.2854 6.9051 15.482 5.1239-1.8342 5.5417-15.482-5.1239-2.7585 8.3347 17.725 5.8665-1.9797 5.9816-24.3-8.0427zm-27.209-24.005 8.1787 1.0556q2.665 0.34398 4.0448-0.57567 1.4029-0.91668 1.7024-3.237 0.28466-2.2055-0.78764-3.4885-1.0693-1.3058-3.4815-1.6172l-8.5004-1.0971-1.1564 8.9596zm-9.4192 18.147 4.3677-33.841 16.403 2.1171q5.5366 0.71461 7.8963 3.4249 2.3597 2.7103 1.7309 7.5807-0.4003 3.1015-1.9767 5.0002-1.5534 1.9016-4.0865 2.3454 2.1046 1.0658 2.816 2.7925 0.73434 1.7297 0.43335 5.1476l-0.3781 4.0154q-6e-3 0.04595-0.0178 0.13784-0.32246 3.0414 0.83508 3.8449l-0.13343 1.0338-7.6272-0.98445q-0.27566-0.75962-0.349-1.8201-0.0474-1.0805 0.0935-2.5338l0.36769-3.5729q0.29136-3.1622-0.64607-4.4044-0.91447-1.2391-3.6944-1.5979l-7.3745-0.95182-1.6991 13.164-6.9611-0.89846zm-29.001-17.362 6.7729-0.44044q2.7507-0.17888 3.924-1.4158 1.1716-1.2601 1.0032-3.849-0.15783-2.4271-1.4641-3.5957-1.3063-1.1686-3.7336-1.0107l-7.1426 0.46447 0.64035 9.8471zm0.3551 6.1749 0.78764 12.113-7.0041 0.45546-2.2142-34.05 15.141-0.98458q5.3627-0.34872 8.2954 2.2694 2.9542 2.5935 3.3044 7.9795 0.34271 5.2703-2.1754 8.3125-2.5196 3.0191-7.5358 3.3452l-8.5991 0.55916zm-39.503 20.132-8.4501-33.057 23.991-6.1325 1.4686 5.7454-17.281 4.4173 1.8014 7.0471 15.8-4.0388 1.4457 5.6555-15.8 4.0388 2.1742 8.5058 18.089-4.6239 1.5604 6.1043-24.799 6.339zm-35.859-5.5347 7.4564-3.5226q2.4296-1.1478 3.0955-2.6665 0.68687-1.5286-0.31252-3.6441-0.94992-2.0107-2.5448-2.5125-1.6048-0.52279-3.8041 0.51618l-7.7496 3.6611 3.8591 8.1683zm1.8568 20.361-14.575-30.851 14.955-7.0652q5.0477-2.3847 8.4963-1.3752t5.5464 5.4496q1.3358 2.8275 1.0326 5.2766-0.28234 2.4391-2.1759 4.1792 2.3471-0.23781 3.8775 0.83252 1.5514 1.0604 3.1415 4.1008l1.8474 3.5849q0.0198 0.04189 0.0594 0.12567 1.369 2.735 2.777 2.7871l0.44528 0.94252-6.9535 3.2851q-0.64187-0.49095-1.2756-1.3444-0.62273-0.88429-1.288-2.184l-1.6175-3.207q-1.4603-2.8199-2.9197-3.3601-1.4384-0.55015-3.9727 0.64715l-6.7233 3.1763 5.6698 12.001-6.3463 2.9982zm-38.468 29.018-22.362-25.772 17.986-15.606 3.8863 4.479-12.755 11.067 5.0704 5.8437 11.18-9.7006 3.8863 4.479-11.18 9.7006 9.5185 10.97-5.2314 4.5391zm-36.023 16.139q4.4357 3.4657 8.44 3.4195 3.9863-0.0603 6.753-3.6014 2.7953-3.5776 1.9039-7.4782-0.90966-3.9151-5.3453-7.3805-4.4356-3.4654-8.4362-3.3872-4.0188 0.0643-6.814 3.6418-2.7668 3.5413-1.8611 7.4235 0.90567 3.8825 5.3595 7.3624zm-4.4069 5.6404q-6.5164-5.0916-7.5645-11.613-1.0521-6.5544 3.6542-12.578 4.7064-6.0237 11.321-6.5879 6.6284-0.58266 13.127 4.4945 6.4981 5.0771 7.5361 11.65 1.0521 6.5544-3.6542 12.578-4.7064 6.0237-11.321 6.5879-6.5999 0.54616-13.098-4.5312zm-7.4026 55.229-31.754-12.491 9.0652-23.044 5.5183 2.1709-6.5297 16.598 6.7688 2.6627 5.9699-15.176 5.4323 2.137-5.9699 15.176 8.1699 3.2139 6.8349-17.374 5.8633 2.3066-9.3704 23.82zm-18.223 33.585 1.3151-6.8001q2.8267 0.14558 4.5293-1.4598 1.6798-1.6098 2.3615-5.135 0.58061-3.0021-0.19362-4.7327-0.77423-1.7305-2.8666-2.1352-3.0475-0.58941-6.7422 7.7796l-0.08507 0.19589q-0.08947 0.21863-0.29555 0.67423-1.9295 4.4872-3.5903 6.2422-1.4802 1.554-3.571 2.117-2.1135 0.5586-4.7289 0.0528-4.8899-0.94568-6.8403-4.7674-1.9733-3.8262-0.75927-10.103 1.1348-5.8678 4.5473-8.6288 3.4167-2.7838 8.501-1.9893l-1.2799 6.6183q-2.4687-0.2887-4.0679 1.148-1.5991 1.4367-2.2017 4.5524-0.52343 2.7064 0.2596 4.3914 0.76468 1.6579 2.7206 2.0362 2.6609 0.51463 5.084-4.9389 0.66296-1.4761 1.0348-2.3008 1.6406-3.4812 2.4584-4.9038 0.82218-1.4454 1.6789-2.4594 1.533-1.8269 3.6184-2.4853 2.0628-0.66275 4.6783-0.15694 5.2308 1.0117 7.4374 5.0954 2.1838 4.0792 0.9435 10.493-1.2228 6.3226-4.8516 9.3486-3.6289 3.026-9.0943 2.2521zm-24.631 37.864-0.0053-7.0882 21.404-0.016q3.961-3e-3 5.79-1.5795 1.8056-1.5765 1.8031-5.005-0.0025-3.4745-1.8106-5.0486-1.808-1.597-5.7922-1.594l-21.404 0.016-0.0053-7.0187 22.168-0.0166q6.2776-5e-3 9.639 3.5138 3.3613 3.4954 3.3664 10.097 5e-3 6.648-3.3281 10.195-3.3563 3.5236-9.657 3.5283l-22.168 0.0166zm23.549 37.715q5.5078-1.1613 8.0516-4.2545 2.5211-3.0884 1.5939-7.4855-0.93673-4.4426-4.4948-6.2726-3.5808-1.8254-9.0887-0.66404-5.5078 1.1613-8.0241 4.2725-2.539 3.1158-1.6022 7.5582 0.92718 4.3971 4.4806 6.2046 3.5534 1.8075 9.0839 0.64137zm1.4768 7.0038q-8.0918 1.7062-13.756-1.6921-5.6919-3.4164-7.2688-10.896-1.5771-7.4798 2.2508-12.903 3.8231-5.4462 11.892-7.1477 8.069-1.7014 13.766 1.7375 5.6919 3.4164 7.2688 10.896 1.5771 7.4798-2.2508 12.903-3.8326 5.4009-11.902 7.1022zm31.115 30.61-31.176 13.867-2.8714-6.4554 11.619-5.1685-5.7239-12.868-11.619 5.1685-2.8714-6.4554 31.176-13.867 2.8714 6.4554-13.821 6.1477 5.7239 12.868 13.821-6.1476z" stroke-width=".31627px"/>
<path d="m94.574 411.15a221.43 222.18 0 0 0 304.54-8.8325" fill="none" stroke-width=".31627"/>
<path d="m361.56 421.59 5.0186-3.8885q1.859 1.8099 4.0027 1.7338 2.1307-0.0929 4.7324-2.1088 2.2156-1.7168 2.729-3.3771 0.51334-1.6603-0.68317-3.2044-1.7427-2.2492-9.3496 1.2808l-0.17708 0.0835q-0.19388 0.0965-0.61139 0.28569-4.0429 1.9238-6.2482 2.1283-1.9595 0.17515-3.7402-0.70155-1.7936-0.89353-3.2892-2.8238-2.7962-3.6086-1.8282-7.421 0.95498-3.8291 5.5875-7.4184 4.3307-3.3553 8.3511-3.1934 4.0372 0.149 7.0588 3.7712l-4.8845 3.7845q-1.5259-1.692-3.4964-1.6695-1.9704 0.0225-4.27 1.8042-1.9974 1.5477-2.4772 3.182-0.47599 1.6045 0.64247 3.048 1.5216 1.9638 6.4889-0.32699 1.3495-0.61581 2.1044-0.95893 3.2358-1.4057 4.6593-1.891 1.4405-0.49832 2.6439-0.67862 2.1609-0.33123 3.9958 0.47668 1.8218 0.79115 3.3174 2.7214 2.9912 3.8607 2.0412 8.008-0.96298 4.1308-5.6963 7.7983-4.6662 3.6156-8.996 3.5052-4.3297-0.11041-7.6265-3.9493zm-21.475 23.562-15.216-27.327 19.832-11.043 2.6444 4.7494-14.285 7.9539 3.2437 5.8254 13.061-7.272 2.6031 4.6751-13.061 7.272 3.9148 7.0313 14.953-8.3258 2.8097 5.0461-20.5 11.414zm-34.426 13.663-10.709-29.387 6.3244-2.3047 19.288 15.842-7.3577-20.19 5.9652-2.1738 10.709 29.387-6.2444 2.2756-19.368-15.813 7.3577 20.19-5.9652 2.1738zm-17.42 4.1115-6.97-30.491 6.272-1.4337 6.97 30.491-6.272 1.4338zm-29.008-12.619 6.1859-0.66565q2.5123-0.27035 3.5387-1.4486 1.0242-1.1994 0.76974-3.564-0.23854-2.2168-1.4801-3.2364-1.2416-1.0196-3.4584-0.78109l-6.5237 0.70199 0.96779 8.9938zm0.56436 5.6416 1.1904 11.063-6.3969 0.68837-3.3464-31.098 13.828-1.488q4.8981-0.52706 7.6854 1.7572 2.8061 2.2608 3.3354 7.18 0.51799 4.8136-1.6704 7.6974-2.1907 2.8626-6.772 3.3556l-7.8536 0.8451zm-31.764-5.4519 6.215 0.28531q2.5242 0.11588 3.7184-0.8921 1.1951-1.0292 1.3042-3.405 0.10225-2.2272-0.96937-3.4243-1.0716-1.197-3.2987-1.2993l-6.5544-0.3009-0.41485 9.0362zm-0.30243 5.6616-0.51027 11.115-6.4272-0.29505 1.4344-31.245 13.894 0.63782q4.9212 0.22594 7.3273 2.9084 2.4286 2.6623 2.2016 7.6044-0.22202 4.8364-2.8245 7.3526-2.6015 2.4951-7.2043 2.2838l-7.8906-0.36226zm-24.616 8.1278 5.0888-30.861 6.3482 1.0468-5.0888 30.861zm-29.299-7.211 8.4106-30.126 6.197 1.73-6.8574 24.563 14.705 4.1052-1.553 5.5629-20.902-5.8352zm-16.699-6.357 11.63-29.035 5.9724 2.3923-11.63 29.035zm-33.243-16.92 15.153-27.362 5.6657 3.1376-5.6476 10.198 11.294 6.2546 5.6476-10.198 5.6657 3.1376-15.153 27.362-5.6657-3.1376 6.7176-12.13-11.294-6.2546-6.7176 12.13zm-11.588-29.476 4.8924 3.8436q1.987 1.561 3.5444 1.4346 1.5707-0.14317 3.0399-2.0132 1.3774-1.7532 1.2008-3.3499-0.17657-1.5969-1.9298-2.9743l-5.1593-4.0536-5.5885 7.1129zm-3.5359 4.4319-6.8738 8.7493-5.0594-3.9749 19.323-24.595 10.937 8.5924q3.8737 3.0434 4.2734 6.6249 0.42949 3.578-2.6271 7.4684-2.9909 3.8069-6.5711 4.3427-3.5672 0.5189-7.1904-2.3277l-6.2112-4.88z" stroke-width=".31627px"/>
<path d="m95.875 382.41-10.441-1.7002-5.8316 8.826-1.6095-10.455-10.196-2.8188 9.446-4.7615-0.46986-10.568 7.4476 7.5124 9.9056-3.7126-4.8435 9.4044z" fill="#fcd116" stroke="#000" stroke-linecap="square" stroke-width="1.2651"/>
<path d="m384.68 383.15 10.537-0.93105 5.1697 9.2293 2.3707-10.309 10.375-2.0646-9.072-5.4404 1.2425-10.505-7.9777 6.9468-9.6071-4.4279 4.1418 9.7338z" fill="#fcd116" stroke="#000" stroke-linecap="square" stroke-width="1.2651"/>
</svg>
